<svg width="15" height="24" viewBox="0 0 15 24" fill="none" xmlns="http://www.w3.org/2000/svg">
<mask id="path-1-inside-1_67_983" fill="white">
<path d="M0 10.6361C0 10.0871 0.445041 9.64209 0.994026 9.64209H13.6182C14.1671 9.64209 14.6122 10.0871 14.6122 10.6361V17.0973C14.6122 20.3912 11.9419 23.0614 8.64803 23.0614H5.96416C2.67024 23.0614 0 20.3912 0 17.0973V10.6361Z"/>
</mask>
<path d="M0 10.6361C0 10.0871 0.445041 9.64209 0.994026 9.64209H13.6182C14.1671 9.64209 14.6122 10.0871 14.6122 10.6361V17.0973C14.6122 20.3912 11.9419 23.0614 8.64803 23.0614H5.96416C2.67024 23.0614 0 20.3912 0 17.0973V10.6361Z" stroke="#5200FF" stroke-width="2" mask="url(#path-1-inside-1_67_983)"/>
<mask id="path-2-inside-2_67_983" fill="white">
<path d="M0 6.41599C0 2.87253 2.87253 0 6.41599 0C6.77033 0 7.05758 0.287254 7.05758 0.641599V8.25042C7.05758 8.7994 6.61254 9.24444 6.06356 9.24444H0.840404C0.376261 9.24444 0 8.86818 0 8.40404V6.41599Z"/>
</mask>
<path d="M0 6.41599C0 2.87253 2.87253 0 6.41599 0C6.77033 0 7.05758 0.287254 7.05758 0.641599V8.25042C7.05758 8.7994 6.61254 9.24444 6.06356 9.24444H0.840404C0.376261 9.24444 0 8.86818 0 8.40404V6.41599Z" fill="#5200FF" stroke="#5200FF" stroke-width="2" mask="url(#path-2-inside-2_67_983)"/>
<mask id="path-3-inside-3_67_983" fill="white">
<path d="M7.55469 0.641599C7.55469 0.287253 7.84194 0 8.19629 0C11.7397 0 14.6123 2.87253 14.6123 6.41599V8.40404C14.6123 8.86818 14.236 9.24444 13.7719 9.24444H8.54871C7.99973 9.24444 7.55469 8.7994 7.55469 8.25042V0.641599Z"/>
</mask>
<path d="M7.55469 0.641599C7.55469 0.287253 7.84194 0 8.19629 0C11.7397 0 14.6123 2.87253 14.6123 6.41599V8.40404C14.6123 8.86818 14.236 9.24444 13.7719 9.24444H8.54871C7.99973 9.24444 7.55469 8.7994 7.55469 8.25042V0.641599Z" stroke="#5200FF" stroke-width="2" mask="url(#path-3-inside-3_67_983)"/>
<rect x="6.76245" y="2.18982" width="1.58447" height="5.46117" rx="0.792234" fill="black" stroke="#5200FF"/>
</svg>
