<svg width="30" height="30" viewBox="0 0 30 30" fill="none" xmlns="http://www.w3.org/2000/svg">
<path d="M15 2L26.2583 21.5L3.74167 21.5L15 2Z" stroke="#727B8C" stroke-width="2"/>
<path d="M15.9557 9.08504L15.7859 15.3273H14.1927L14.0186 9.08504H15.9557ZM14.9893 18.1132C14.702 18.1132 14.4554 18.0116 14.2493 17.8085C14.0433 17.6024 13.9417 17.3558 13.9446 17.0685C13.9417 16.7841 14.0433 16.5403 14.2493 16.3372C14.4554 16.134 14.702 16.0324 14.9893 16.0324C15.265 16.0324 15.5073 16.134 15.7163 16.3372C15.9252 16.5403 16.0311 16.7841 16.034 17.0685C16.0311 17.26 15.9804 17.4356 15.8817 17.5952C15.7859 17.7519 15.6597 17.8781 15.503 17.9739C15.3463 18.0667 15.1751 18.1132 14.9893 18.1132Z" fill="#727B8C"/>
</svg>
