<svg width="173" height="45" viewBox="0 0 173 45" fill="none" xmlns="http://www.w3.org/2000/svg">
<path d="M4.00436 39.4647H3.05374V31.1022H6.2324C7.15331 31.1022 7.85638 31.325 8.3416 31.7706C8.82681 32.2162 9.06942 32.8797 9.06942 33.761C9.06942 34.5829 8.81691 35.2166 8.31189 35.6622C7.81677 36.1078 7.12361 36.3306 6.2324 36.3306H4.00436V39.4647ZM6.12842 31.9191H4.00436V35.5879H6.12842C6.78198 35.5879 7.287 35.4394 7.64348 35.1423C8.00987 34.8354 8.19306 34.3749 8.19306 33.761C8.19306 33.1272 8.01482 32.6618 7.65833 32.3647C7.31175 32.0677 6.80178 31.9191 6.12842 31.9191ZM14.0343 39.6133C13.3709 39.6133 12.8213 39.4647 12.3856 39.1677C11.9598 38.8607 11.6429 38.4695 11.435 37.9942C11.2369 37.509 11.1379 37.0089 11.1379 36.494C11.1379 35.9296 11.2468 35.4147 11.4647 34.9492C11.6924 34.4739 12.0192 34.0976 12.445 33.8204C12.8807 33.5431 13.4006 33.4045 14.0046 33.4045C14.777 33.4045 15.4207 33.657 15.9356 34.162C16.4505 34.6571 16.7278 35.3255 16.7674 36.1672C16.7773 36.2068 16.7822 36.2663 16.7822 36.3455C16.7822 36.4148 16.7822 36.4792 16.7822 36.5386H12.0588C12.0588 37.2416 12.2272 37.7962 12.5638 38.2022C12.9104 38.5983 13.3956 38.7963 14.0195 38.7963C14.4849 38.7963 14.881 38.6775 15.2078 38.4398C15.5444 38.2022 15.7524 37.8803 15.8316 37.4743H16.7674C16.6684 38.0883 16.3762 38.5983 15.891 39.0043C15.4058 39.4103 14.7869 39.6133 14.0343 39.6133ZM12.0885 36.0187H15.8019C15.8019 35.8108 15.7425 35.5632 15.6237 35.276C15.5147 34.9889 15.3266 34.7413 15.0592 34.5333C14.8018 34.3155 14.4453 34.2066 13.9898 34.2066C13.5739 34.2066 13.2322 34.2957 12.9649 34.4739C12.6975 34.6522 12.4945 34.8799 12.3559 35.1572C12.2172 35.4345 12.1281 35.7216 12.0885 36.0187ZM22.0726 39.6133C21.4884 39.6133 20.9982 39.4796 20.6021 39.2122C20.216 38.9448 19.9238 38.5785 19.7258 38.113C19.5376 37.6377 19.4436 37.108 19.4436 36.5237C19.4436 35.6226 19.6664 34.8799 20.112 34.2957C20.5576 33.7115 21.2161 33.4193 22.0875 33.4193C22.4935 33.4193 22.8302 33.4886 23.0975 33.6273C23.3748 33.756 23.5976 33.9145 23.7659 34.1026C23.9343 34.2907 24.0581 34.464 24.1373 34.6225C24.2165 34.7809 24.266 34.8849 24.2858 34.9344H24.3155L24.3304 31.1022H25.3107V39.4647H24.4789L24.3304 38.1279H24.3007C24.2809 38.1774 24.2264 38.2814 24.1373 38.4398C24.0482 38.5983 23.9145 38.7666 23.7362 38.9448C23.5679 39.1231 23.3451 39.2815 23.0678 39.4202C22.8005 39.5489 22.4687 39.6133 22.0726 39.6133ZM22.3103 38.7666C22.8945 38.7666 23.3699 38.5686 23.7362 38.1725C24.1125 37.7665 24.3007 37.2169 24.3007 36.5237C24.3007 35.8405 24.1274 35.3008 23.7808 34.9047C23.4342 34.4987 22.9688 34.2957 22.3846 34.2957C21.9192 34.2957 21.5379 34.4046 21.2408 34.6225C20.9438 34.8304 20.7259 35.1027 20.5873 35.4394C20.4487 35.7761 20.3793 36.1375 20.3793 36.5237C20.3793 36.9 20.4437 37.2614 20.5724 37.608C20.7012 37.9447 20.9042 38.222 21.1814 38.4398C21.4587 38.6577 21.835 38.7666 22.3103 38.7666ZM28.0048 39.4647V33.4193H28.8663L28.9703 35.0087C29.0297 34.7413 29.1485 34.4838 29.3267 34.2363C29.505 33.9887 29.7476 33.7907 30.0546 33.6421C30.3714 33.4837 30.7626 33.4094 31.228 33.4193H31.5102V34.4739H31.2131C30.5794 34.4739 30.0991 34.568 29.7723 34.7562C29.4555 34.9344 29.2376 35.1869 29.1188 35.5137C29.0099 35.8405 28.9554 36.2167 28.9554 36.6425V39.4647H28.0048ZM36.3067 39.6133C35.3363 39.6133 34.6085 39.3261 34.1233 38.7518C33.648 38.1675 33.4103 37.4248 33.4103 36.5237C33.4004 35.6127 33.6381 34.87 34.1233 34.2957C34.6184 33.7115 35.3462 33.4144 36.3067 33.4045C37.2574 33.4045 37.9753 33.6916 38.4605 34.266C38.9556 34.8304 39.2032 35.583 39.2032 36.5237C39.2032 37.108 39.0992 37.6328 38.8913 38.0982C38.6833 38.5636 38.3664 38.9349 37.9406 39.2122C37.5148 39.4796 36.9702 39.6133 36.3067 39.6133ZM36.3067 38.7815C36.8217 38.7815 37.2178 38.6676 37.495 38.4398C37.7822 38.2121 37.9802 37.9249 38.0892 37.5783C38.208 37.2218 38.2674 36.8604 38.2674 36.494C38.2674 36.1276 38.208 35.7662 38.0892 35.4097C37.9802 35.0532 37.7822 34.7611 37.495 34.5333C37.2178 34.3056 36.8217 34.1917 36.3067 34.1917C35.7918 34.1917 35.3908 34.3056 35.1036 34.5333C34.8263 34.7611 34.6283 35.0532 34.5095 35.4097C34.4005 35.7662 34.3461 36.1276 34.3461 36.494C34.3461 36.8604 34.4005 37.2218 34.5095 37.5783C34.6283 37.9249 34.8263 38.2121 35.1036 38.4398C35.3908 38.6676 35.7918 38.7815 36.3067 38.7815ZM46.9914 39.4647V31.1022H47.9421V38.6329H52.5764V39.4647H46.9914ZM57.0885 39.6133C56.5933 39.6133 56.1923 39.5241 55.8853 39.3459C55.5883 39.1677 55.3605 38.93 55.2021 38.6329C55.0436 38.326 54.9347 37.9942 54.8753 37.6377C54.8258 37.2713 54.801 36.905 54.801 36.5386V33.4193H55.7516V36.5534C55.7516 36.9495 55.7913 37.3159 55.8705 37.6526C55.9497 37.9893 56.1081 38.2566 56.3458 38.4547C56.5933 38.6527 56.9498 38.7518 57.4152 38.7518C57.8608 38.7518 58.2074 38.6527 58.455 38.4547C58.7125 38.2467 58.9006 37.9794 59.0194 37.6526C59.1383 37.3258 59.2076 36.9842 59.2274 36.6277V33.4193H60.2077V39.4647H59.3908L59.2274 38.113H59.1977C59.1482 38.2814 59.0442 38.4844 58.8857 38.722C58.7273 38.9597 58.4996 39.1677 58.2025 39.3459C57.9153 39.5241 57.544 39.6133 57.0885 39.6133ZM63.9109 39.4796H62.9454V31.1022H63.9109V36.7317L67.2084 33.4045H68.4264L65.7824 36.0187L68.4858 39.4796H67.3123L65.0992 36.6871L63.9109 37.8605V39.4796ZM72.6256 39.5984C72.0711 39.5984 71.6156 39.4647 71.2591 39.1974C70.9026 38.9201 70.6352 38.5488 70.457 38.0833C70.2887 37.6179 70.2045 37.0882 70.2045 36.494C70.2045 35.583 70.4025 34.8354 70.7986 34.2511C71.2046 33.657 71.8136 33.3599 72.6256 33.3599C73.0415 33.3599 73.3881 33.4342 73.6654 33.5827C73.9525 33.7214 74.1803 33.8946 74.3486 34.1026C74.5269 34.3105 74.6556 34.5086 74.7348 34.6967H74.7497V33.4193H75.73V39.4647H74.9131L74.7645 38.2913H74.7348C74.6457 38.4893 74.517 38.6923 74.3486 38.9003C74.1803 39.0983 73.9525 39.2667 73.6654 39.4053C73.3881 39.534 73.0415 39.5984 72.6256 39.5984ZM72.9969 38.7518C73.6109 38.7518 74.0515 38.5488 74.3189 38.1428C74.5962 37.7368 74.7348 37.1921 74.7348 36.5089C74.7348 35.7761 74.5912 35.2166 74.3041 34.8304C74.0268 34.4442 73.5911 34.2511 72.9969 34.2511C72.3434 34.2511 71.873 34.469 71.5859 34.9047C71.3086 35.3305 71.17 35.8603 71.17 36.494C71.17 37.1575 71.3135 37.7021 71.6007 38.1279C71.8879 38.5438 72.3533 38.7518 72.9969 38.7518ZM80.5835 39.6133C80.0092 39.6133 79.5339 39.4944 79.1576 39.2568C78.7912 39.0092 78.5139 38.722 78.3258 38.3953C78.1475 38.0685 78.0584 37.7764 78.0584 37.5189H78.9793C78.9793 37.5288 78.9843 37.6031 78.9942 37.7417C79.014 37.8803 79.0684 38.0388 79.1576 38.217C79.2467 38.3953 79.4002 38.5537 79.618 38.6923C79.8359 38.8211 80.1528 38.8854 80.5687 38.8854C81.0143 38.8854 81.3955 38.8062 81.7124 38.6478C82.0392 38.4893 82.1976 38.2418 82.1877 37.9051C82.1877 37.6179 82.0887 37.4001 81.8906 37.2515C81.7025 37.0931 81.4549 36.9743 81.1479 36.8951C80.841 36.8059 80.5191 36.7218 80.1825 36.6425C79.8458 36.5633 79.524 36.4643 79.217 36.3455C78.9199 36.2167 78.6773 36.0385 78.4892 35.8108C78.301 35.583 78.2069 35.2661 78.2069 34.8601C78.2069 34.365 78.4297 33.9739 78.8754 33.6867C79.321 33.3896 79.8903 33.2411 80.5835 33.2411C80.9697 33.2411 81.3608 33.3055 81.7569 33.4342C82.153 33.553 82.4798 33.7659 82.7373 34.0729C82.9947 34.37 83.1136 34.7908 83.0938 35.3354H82.2025C82.2223 34.9591 82.1382 34.6769 81.95 34.4888C81.7619 34.3006 81.5341 34.1769 81.2668 34.1174C81.0093 34.0481 80.7717 34.0135 80.5538 34.0135C80.128 34.0135 79.7765 34.0927 79.4992 34.2511C79.2318 34.4096 79.0982 34.6324 79.0982 34.9195C79.0982 35.1968 79.1922 35.4097 79.3804 35.5582C79.5784 35.6969 79.826 35.8108 80.123 35.8999C80.43 35.9791 80.7518 36.0583 81.0885 36.1375C81.4351 36.2068 81.7619 36.3059 82.0689 36.4346C82.3758 36.5633 82.6234 36.7465 82.8115 36.9842C83.0096 37.2218 83.1086 37.5486 83.1086 37.9645C83.1086 38.5389 82.866 38.9597 82.3808 39.2271C81.8956 39.4845 81.2965 39.6133 80.5835 39.6133ZM90.3816 36.494V35.7662H93.6791V36.494H90.3816ZM108.929 35.276C108.929 36.3752 108.721 37.2317 108.305 37.8457C107.889 38.4497 107.305 38.8706 106.552 39.1082C105.8 39.3459 104.919 39.4647 103.909 39.4647H101.695V31.1022H103.909C104.919 31.1022 105.8 31.2606 106.552 31.5775C107.305 31.8845 107.889 32.3449 108.305 32.9589C108.721 33.5728 108.929 34.3452 108.929 35.276ZM102.646 38.6478H104.117C104.889 38.6478 105.557 38.5636 106.122 38.3953C106.696 38.217 107.137 37.8853 107.444 37.4001C107.761 36.9149 107.919 36.2068 107.919 35.276C107.919 34.1373 107.572 33.3005 106.879 32.7658C106.186 32.2211 105.265 31.9488 104.117 31.9488H102.646V38.6478ZM114.082 39.6133C113.418 39.6133 112.869 39.4647 112.433 39.1677C112.007 38.8607 111.69 38.4695 111.482 37.9942C111.284 37.509 111.185 37.0089 111.185 36.494C111.185 35.9296 111.294 35.4147 111.512 34.9492C111.74 34.4739 112.066 34.0976 112.492 33.8204C112.928 33.5431 113.448 33.4045 114.052 33.4045C114.824 33.4045 115.468 33.657 115.983 34.162C116.498 34.6571 116.775 35.3255 116.815 36.1672C116.825 36.2068 116.829 36.2663 116.829 36.3455C116.829 36.4148 116.829 36.4792 116.829 36.5386H112.106C112.106 37.2416 112.274 37.7962 112.611 38.2022C112.958 38.5983 113.443 38.7963 114.067 38.7963C114.532 38.7963 114.928 38.6775 115.255 38.4398C115.592 38.2022 115.8 37.8803 115.879 37.4743H116.815C116.716 38.0883 116.424 38.5983 115.938 39.0043C115.453 39.4103 114.834 39.6133 114.082 39.6133ZM112.136 36.0187H115.849C115.849 35.8108 115.79 35.5632 115.671 35.276C115.562 34.9889 115.374 34.7413 115.106 34.5333C114.849 34.3155 114.493 34.2066 114.037 34.2066C113.621 34.2066 113.28 34.2957 113.012 34.4739C112.745 34.6522 112.542 34.8799 112.403 35.1572C112.265 35.4345 112.175 35.7216 112.136 36.0187ZM123.694 33.4193H124.645V33.6273L122.358 39.4647H121.006L118.704 33.6273V33.4193H119.654L121.674 38.6775H121.704L123.694 33.4193ZM134.202 39.6133C133.835 39.6133 133.464 39.5439 133.088 39.4053C132.711 39.2568 132.394 39.0142 132.137 38.6775C131.889 38.3309 131.766 37.8605 131.766 37.2664H132.657C132.657 37.4942 132.696 37.7269 132.776 37.9645C132.865 38.1923 133.018 38.3854 133.236 38.5438C133.454 38.7022 133.766 38.7815 134.172 38.7815C134.687 38.7815 135.063 38.6428 135.301 38.3656C135.548 38.0883 135.672 37.6179 135.672 36.9545V31.8746H134.023V31.117H136.623V36.8356C136.623 37.717 136.44 38.4002 136.073 38.8854C135.717 39.3706 135.093 39.6133 134.202 39.6133ZM141.697 39.6133C141.202 39.6133 140.801 39.5241 140.494 39.3459C140.197 39.1677 139.969 38.93 139.811 38.6329C139.652 38.326 139.544 37.9942 139.484 37.6377C139.435 37.2713 139.41 36.905 139.41 36.5386V33.4193H140.361V36.5534C140.361 36.9495 140.4 37.3159 140.479 37.6526C140.559 37.9893 140.717 38.2566 140.955 38.4547C141.202 38.6527 141.559 38.7518 142.024 38.7518C142.47 38.7518 142.816 38.6527 143.064 38.4547C143.321 38.2467 143.509 37.9794 143.628 37.6526C143.747 37.3258 143.816 36.9842 143.836 36.6277V33.4193H144.817V39.4647H144L143.836 38.113H143.807C143.757 38.2814 143.653 38.4844 143.495 38.722C143.336 38.9597 143.108 39.1677 142.811 39.3459C142.524 39.5241 142.153 39.6133 141.697 39.6133ZM142.277 32.6618H141.801V32.5133L142.559 30.9834H143.435V31.2062L142.277 32.6618ZM147.406 39.4647V33.4193H148.223L148.386 34.9195H148.416C148.426 34.87 148.47 34.7661 148.549 34.6076C148.629 34.4492 148.748 34.2808 148.906 34.1026C149.074 33.9145 149.292 33.756 149.56 33.6273C149.827 33.4886 150.169 33.4193 150.584 33.4193C151.109 33.4193 151.52 33.5134 151.817 33.7015C152.124 33.8897 152.352 34.1422 152.501 34.4591C152.649 34.7661 152.743 35.0978 152.783 35.4543C152.822 35.8108 152.842 36.1524 152.842 36.4792V39.4647H151.921V36.4792C151.921 35.8256 151.807 35.2958 151.58 34.8898C151.362 34.4838 150.926 34.2808 150.272 34.2808C149.827 34.2808 149.46 34.3898 149.173 34.6076C148.896 34.8156 148.693 35.0978 148.564 35.4543C148.445 35.8008 148.386 36.1821 148.386 36.598V39.4647H147.406ZM156.129 32.7658C155.911 32.7658 155.763 32.7113 155.683 32.6024C155.614 32.4836 155.579 32.335 155.579 32.1568C155.579 32.0082 155.614 31.8795 155.683 31.7706C155.763 31.6518 155.911 31.5923 156.129 31.5923C156.347 31.5923 156.49 31.6518 156.56 31.7706C156.639 31.8795 156.679 32.0082 156.679 32.1568C156.679 32.335 156.639 32.4836 156.56 32.6024C156.49 32.7113 156.347 32.7658 156.129 32.7658ZM155.654 39.4647V33.4193H156.604V39.4647H155.654ZM162.067 39.6133C161.096 39.6133 160.369 39.3261 159.883 38.7518C159.408 38.1675 159.17 37.4248 159.17 36.5237C159.161 35.6127 159.398 34.87 159.883 34.2957C160.379 33.7115 161.106 33.4144 162.067 33.4045C163.018 33.4045 163.735 33.6916 164.221 34.266C164.716 34.8304 164.963 35.583 164.963 36.5237C164.963 37.108 164.859 37.6328 164.651 38.0982C164.443 38.5636 164.127 38.9349 163.701 39.2122C163.275 39.4796 162.73 39.6133 162.067 39.6133ZM162.067 38.7815C162.582 38.7815 162.978 38.6676 163.255 38.4398C163.542 38.2121 163.74 37.9249 163.849 37.5783C163.968 37.2218 164.028 36.8604 164.028 36.494C164.028 36.1276 163.968 35.7662 163.849 35.4097C163.74 35.0532 163.542 34.7611 163.255 34.5333C162.978 34.3056 162.582 34.1917 162.067 34.1917C161.552 34.1917 161.151 34.3056 160.864 34.5333C160.586 34.7611 160.388 35.0532 160.27 35.4097C160.161 35.7662 160.106 36.1276 160.106 36.494C160.106 36.8604 160.161 37.2218 160.27 37.5783C160.388 37.9249 160.586 38.2121 160.864 38.4398C161.151 38.6676 161.552 38.7815 162.067 38.7815ZM167.608 39.4647V33.4193H168.469L168.573 35.0087C168.633 34.7413 168.751 34.4838 168.93 34.2363C169.108 33.9887 169.351 33.7907 169.657 33.6421C169.974 33.4837 170.366 33.4094 170.831 33.4193H171.113V34.4739H170.816C170.182 34.4739 169.702 34.568 169.375 34.7562C169.058 34.9344 168.841 35.1869 168.722 35.5137C168.613 35.8405 168.558 36.2167 168.558 36.6425V39.4647H167.608Z" fill="white"/>
<path d="M2.37596 19.4501L2.88521 16.4118L15.9099 11.0604L15.3402 14.5561L6.46721 17.8964L6.60531 17.7152L6.52763 18.1467L6.43268 17.9655L14.2268 21.3058L13.6398 24.8015L2.37596 19.4501ZM28.0282 6.49446L18.8445 27.6584H15.6768L24.8605 6.49446H28.0282ZM44.2832 13.5117H40.5544C40.5659 13.0169 40.5026 12.5795 40.3645 12.1998C40.2264 11.8142 40.0193 11.4862 39.7431 11.2158C39.4726 10.9453 39.1418 10.7411 38.7505 10.603C38.3592 10.4591 37.919 10.3872 37.4299 10.3872C36.4862 10.3872 35.6202 10.6231 34.8319 11.095C34.0435 11.5668 33.3789 12.2515 32.838 13.1492C32.2971 14.0411 31.9231 15.12 31.716 16.3859C31.5146 17.6058 31.5261 18.6272 31.7505 19.4501C31.9749 20.2729 32.3719 20.8944 32.9416 21.3144C33.517 21.7287 34.2334 21.9359 35.0908 21.9359C35.6202 21.9359 36.1237 21.8697 36.6013 21.7374C37.0789 21.5993 37.5133 21.4036 37.9046 21.1504C38.3017 20.8915 38.6469 20.5779 38.9404 20.2096C39.2396 19.8414 39.4726 19.4242 39.6395 18.9581H43.3941C43.1582 19.7694 42.7899 20.552 42.2893 21.3058C41.7945 22.0596 41.1816 22.7328 40.4509 23.3255C39.7201 23.9125 38.8886 24.3785 37.9564 24.7238C37.0242 25.0691 36.0028 25.2417 34.8923 25.2417C33.2869 25.2417 31.9087 24.8734 30.7579 24.1369C29.6128 23.4003 28.7871 22.3387 28.2807 20.9519C27.7743 19.5651 27.6794 17.8936 27.9959 15.9371C28.3123 14.044 28.9309 12.4386 29.8516 11.1208C30.778 9.79738 31.903 8.79327 33.2264 8.10851C34.5557 7.42376 35.977 7.08139 37.4903 7.08139C38.5433 7.08139 39.4957 7.22524 40.3473 7.51295C41.1989 7.80067 41.9239 8.22072 42.5224 8.77313C43.1266 9.31978 43.5811 9.99014 43.8861 10.7842C44.1911 11.5783 44.3234 12.4875 44.2832 13.5117ZM62.7499 16.4032C62.4276 18.2906 61.8033 19.8931 60.8769 21.2109C59.9562 22.5286 58.8312 23.5298 57.502 24.2146C56.1785 24.8993 54.7515 25.2417 53.2209 25.2417C51.6155 25.2417 50.2316 24.8763 49.0692 24.1455C47.9126 23.4147 47.0754 22.3588 46.5575 20.9778C46.0396 19.591 45.9418 17.9194 46.264 15.963C46.5748 14.0699 47.1933 12.4645 48.1198 11.1467C49.0462 9.82327 50.1769 8.81628 51.5119 8.12578C52.8469 7.42952 54.2825 7.08139 55.8189 7.08139C57.4128 7.08139 58.7881 7.44966 59.9447 8.1862C61.107 8.92274 61.9443 9.98727 62.4564 11.3798C62.9743 12.7665 63.0721 14.441 62.7499 16.4032ZM59.0298 15.963C59.2312 14.7489 59.2225 13.7304 59.0039 12.9075C58.791 12.0789 58.3997 11.4517 57.83 11.0259C57.2603 10.6001 56.5411 10.3872 55.6722 10.3872C54.7285 10.3872 53.8625 10.6231 53.0742 11.095C52.2916 11.5668 51.6298 12.2515 51.089 13.1492C50.5538 14.0411 50.1827 15.1258 49.9755 16.4032C49.7684 17.6231 49.7741 18.6416 49.9928 19.4587C50.2172 20.2758 50.6171 20.8944 51.1925 21.3144C51.7737 21.7287 52.4959 21.9359 53.359 21.9359C54.2969 21.9359 55.1543 21.7057 55.9311 21.2454C56.7137 20.7793 57.3725 20.1032 57.9077 19.217C58.4428 18.3251 58.8169 17.2404 59.0298 15.963ZM70.4382 25H64.0855L67.0202 7.32307H73.252C75.0301 7.32307 76.506 7.68558 77.6799 8.41061C78.8595 9.13564 79.691 10.1743 80.1743 11.5265C80.6577 12.873 80.744 14.4813 80.4333 16.3514C80.134 18.1582 79.5385 19.709 78.6466 21.0037C77.7547 22.2926 76.6125 23.2824 75.2199 23.9729C73.8274 24.6576 72.2335 25 70.4382 25ZM68.3581 21.7978H70.654C71.7645 21.7978 72.737 21.5906 73.5714 21.1763C74.4115 20.762 75.0991 20.1233 75.6343 19.2602C76.1751 18.397 76.5578 17.2922 76.7822 15.9457C76.9951 14.6683 76.9807 13.6326 76.7391 12.8385C76.5031 12.0386 76.0457 11.4546 75.3667 11.0863C74.6877 10.7123 73.7958 10.5253 72.691 10.5253H70.231L68.3581 21.7978ZM81.769 25L84.7036 7.32307H96.6148L96.0969 10.4044H87.9231L87.2326 14.6165H94.7936L94.2757 17.6979H86.7147L86.0242 21.9186H94.2326L93.7147 25H81.769ZM106.552 14.7028L106.077 17.6202H98.0066L98.4813 14.7028H106.552ZM108.045 25L110.979 7.32307H114.717L112.3 21.9186H119.878L119.36 25H108.045ZM125.333 25H121.328L130.365 7.32307H135.182L138.341 25H134.336L132.187 11.3625H132.049L125.333 25ZM126.248 18.0518H135.708L135.208 20.9692H125.748L126.248 18.0518ZM140.468 25L143.403 7.32307H150.481C151.781 7.32307 152.834 7.51583 153.64 7.90136C154.451 8.2869 155.018 8.82204 155.34 9.50679C155.662 10.1858 155.749 10.9684 155.599 11.8545C155.478 12.545 155.234 13.1492 154.865 13.6671C154.503 14.185 154.054 14.6108 153.519 14.9445C152.984 15.2783 152.403 15.5142 151.775 15.6523L151.741 15.8249C152.408 15.8537 153.01 16.0436 153.545 16.3946C154.08 16.7398 154.48 17.2289 154.745 17.8619C155.009 18.4949 155.07 19.2458 154.926 20.1147C154.77 21.0526 154.399 21.8898 153.812 22.6264C153.225 23.3572 152.443 23.9355 151.465 24.3613C150.492 24.7871 149.344 25 148.021 25H140.468ZM144.724 21.9445H147.77C148.806 21.9445 149.597 21.7431 150.144 21.3403C150.691 20.9375 151.019 20.4053 151.128 19.7435C151.203 19.2544 151.154 18.8229 150.981 18.4488C150.814 18.0748 150.53 17.7813 150.127 17.5684C149.73 17.3555 149.226 17.2491 148.616 17.2491H145.492L144.724 21.9445ZM145.923 14.7201H148.694C149.2 14.7201 149.669 14.6309 150.101 14.4525C150.538 14.2684 150.898 14.0095 151.18 13.6757C151.468 13.3362 151.649 12.9363 151.724 12.476C151.827 11.8315 151.683 11.3165 151.292 10.931C150.907 10.5397 150.302 10.344 149.479 10.344H146.648L145.923 14.7201ZM170.71 17.7929L157.668 23.1443L158.255 19.6486L167.102 16.3083L166.973 16.4895L167.051 16.058L167.137 16.2392L159.369 12.8989L159.938 9.40321L171.22 14.7546L170.71 17.7929Z" fill="url(#paint0_linear_63_39)"/>
<defs>
<linearGradient id="paint0_linear_63_39" x1="86.5" y1="32" x2="86.5" y2="0" gradientUnits="userSpaceOnUse">
<stop stop-color="#5200FF"/>
<stop offset="1" stop-color="#8761F5"/>
</linearGradient>
</defs>
</svg>
